<?xml version="1.0" encoding="UTF-8" ?>
<!DOCTYPE svg PUBLIC "-//W3C//DTD SVG 1.1//EN" "http://www.w3.org/Graphics/SVG/1.1/DTD/svg11.dtd">
<svg width="199pt" height="179pt" viewBox="0 0 199 179" version="1.1" xmlns="http://www.w3.org/2000/svg">
<g id="#387ee8ff">
<path fill="#387ee8" opacity="1.00" d=" M 91.50 3.57 C 95.94 -0.92 103.91 -1.07 108.49 3.29 C 137.15 30.68 165.74 58.16 194.39 85.55 C 197.91 88.90 199.72 94.22 198.36 98.96 C 196.13 107.31 184.24 109.67 178.41 103.66 C 152.06 78.86 125.75 54.03 99.38 29.25 C 73.10 54.00 46.83 78.74 20.56 103.49 C 16.07 108.09 7.84 108.27 3.30 103.66 C 1.58 101.58 0.59 99.01 0.00 96.40 L 0.00 93.24 C 0.40 90.67 1.55 88.19 3.51 86.44 C 32.82 58.80 62.17 31.20 91.50 3.57 Z" />
<path fill="#387ee8" opacity="1.00" d=" M 91.41 75.37 C 95.93 70.72 104.17 70.64 108.75 75.24 C 137.36 102.63 165.94 130.05 194.54 157.44 C 198.45 161.23 200.15 167.61 197.60 172.61 C 194.99 177.78 188.31 179.99 182.96 178.12 C 179.65 177.13 177.43 174.35 174.96 172.13 C 149.75 148.43 124.60 124.65 99.35 100.99 C 73.23 125.65 47.03 150.24 20.90 174.90 C 17.28 178.78 11.15 179.87 6.38 177.56 C 2.51 175.93 0.69 171.69 0.00 167.81 L 0.00 164.74 C 0.49 162.34 1.51 159.99 3.35 158.31 C 32.69 130.65 62.06 103.02 91.41 75.37 Z" />
</g>
</svg>
