<?xml version="1.0" encoding="UTF-8" ?>
<!DOCTYPE svg PUBLIC "-//W3C//DTD SVG 1.1//EN" "http://www.w3.org/Graphics/SVG/1.1/DTD/svg11.dtd">
<svg width="101pt" height="101pt" viewBox="0 0 101 101" version="1.1" xmlns="http://www.w3.org/2000/svg">
<g id="#ffffffff">
<path fill="#ffffff" opacity="1.00" d=" M 47.78 0.00 L 53.00 0.00 C 66.36 0.65 79.34 6.81 88.20 16.85 C 95.83 25.30 100.34 36.41 101.00 47.76 L 101.00 53.02 C 100.34 66.37 94.18 79.34 84.16 88.19 C 75.70 95.83 64.58 100.34 53.22 101.00 L 48.02 101.00 C 34.67 100.36 21.69 94.21 12.83 84.19 C 5.18 75.72 0.66 64.60 0.00 53.22 L 0.00 47.97 C 0.60 36.53 5.14 25.33 12.82 16.82 C 21.64 6.85 34.51 0.73 47.78 0.00 M 17.04 19.02 C 7.51 29.00 2.98 43.43 5.04 57.07 C 6.36 67.18 11.46 76.48 18.55 83.70 C 27.56 92.43 40.24 97.13 52.73 96.59 C 63.77 95.93 74.53 91.40 82.49 83.68 C 88.13 77.82 92.67 70.78 94.77 62.86 C 98.62 49.31 95.80 34.03 87.20 22.84 C 79.02 11.88 65.73 4.92 52.04 4.58 C 39.01 4.06 25.92 9.47 17.04 19.02 Z" />
<path fill="#ffffff" opacity="1.00" d=" M 38.31 70.64 C 39.79 69.78 41.26 68.91 42.77 68.12 C 45.29 69.62 47.95 70.86 50.50 72.31 C 49.86 73.66 49.20 74.99 48.50 76.31 C 47.80 77.58 47.09 78.84 46.48 80.16 C 43.64 77.08 41.11 73.74 38.31 70.64 Z" />
<path fill="#ffffff" opacity="1.00" d=" M 58.21 68.13 C 59.75 68.91 61.25 69.77 62.76 70.62 C 60.43 73.75 58.37 77.06 55.96 80.12 C 54.97 78.83 54.07 77.47 53.15 76.13 C 52.27 74.86 51.39 73.60 50.51 72.33 C 53.06 70.89 55.71 69.66 58.21 68.13 Z" />
</g>
<g id="#e2e3e5ff">
<path fill="#e2e3e5" opacity="1.00" d=" M 17.04 19.02 C 25.92 9.47 39.01 4.06 52.04 4.58 C 65.73 4.92 79.02 11.88 87.20 22.84 C 95.80 34.03 98.62 49.31 94.77 62.86 C 92.67 70.78 88.13 77.82 82.49 83.68 C 81.75 80.77 81.22 77.22 78.32 75.62 C 73.58 72.79 67.97 72.17 62.76 70.62 C 61.25 69.77 59.75 68.91 58.21 68.13 C 57.62 64.41 61.07 62.55 62.99 60.00 C 64.90 57.67 65.95 54.83 66.98 52.05 C 67.59 49.50 70.71 48.62 71.34 46.08 C 72.16 43.71 70.34 41.60 69.42 39.57 C 70.18 36.43 70.24 33.00 68.72 30.07 C 70.05 28.58 71.34 27.04 72.35 25.31 C 66.81 23.95 61.69 21.21 57.13 17.82 C 50.63 12.61 40.60 14.40 34.88 19.94 C 32.38 22.20 31.35 25.90 32.87 29.00 C 29.21 31.72 30.08 36.89 31.04 40.75 C 30.41 42.43 29.14 44.12 29.66 46.01 C 30.02 48.71 33.40 49.45 33.99 52.03 C 35.31 56.27 37.59 60.17 40.87 63.19 C 42.47 64.35 42.58 66.32 42.77 68.12 C 41.26 68.91 39.79 69.78 38.31 70.64 C 33.07 72.17 27.38 72.71 22.69 75.72 C 19.88 77.38 19.26 80.79 18.55 83.70 C 11.46 76.48 6.36 67.18 5.04 57.07 C 2.98 43.43 7.51 29.00 17.04 19.02 Z" />
</g>
<g id="#61402fff">
<path fill="#61402f" opacity="1.00" d=" M 34.88 19.94 C 40.60 14.40 50.63 12.61 57.13 17.82 C 61.69 21.21 66.81 23.95 72.35 25.31 C 71.34 27.04 70.05 28.58 68.72 30.07 C 70.24 33.00 70.18 36.43 69.42 39.57 C 68.61 41.20 68.72 44.33 66.18 43.94 C 65.42 40.33 65.07 36.65 64.51 33.00 C 55.46 37.06 44.49 36.96 35.87 31.82 C 35.20 35.82 34.78 39.87 34.06 43.86 C 31.94 44.41 31.72 42.16 31.04 40.75 C 30.08 36.89 29.21 31.72 32.87 29.00 C 31.35 25.90 32.38 22.20 34.88 19.94 Z" />
</g>
<g id="#fee1b9ff">
<path fill="#fee1b9" opacity="1.00" d=" M 34.06 43.86 C 34.78 39.87 35.20 35.82 35.87 31.82 C 44.49 36.96 55.46 37.06 64.51 33.00 C 65.07 36.65 65.42 40.33 66.18 43.94 C 68.72 44.33 68.61 41.20 69.42 39.57 C 70.34 41.60 72.16 43.71 71.34 46.08 C 70.71 48.62 67.59 49.50 66.98 52.05 C 65.95 54.83 64.90 57.67 62.99 60.00 C 61.07 62.55 57.62 64.41 58.21 68.13 C 55.71 69.66 53.06 70.89 50.51 72.33 L 50.50 72.31 C 47.95 70.86 45.29 69.62 42.77 68.12 C 42.58 66.32 42.47 64.35 40.87 63.19 C 37.59 60.17 35.31 56.27 33.99 52.03 C 33.40 49.45 30.02 48.71 29.66 46.01 C 29.14 44.12 30.41 42.43 31.04 40.75 C 31.72 42.16 31.94 44.41 34.06 43.86 Z" />
</g>
<g id="#d0d4d7ff">
<path fill="#d0d4d7" opacity="1.00" d=" M 22.69 75.72 C 27.38 72.71 33.07 72.17 38.31 70.64 C 41.11 73.74 43.64 77.08 46.48 80.16 C 47.09 78.84 47.80 77.58 48.50 76.31 C 49.89 81.19 46.98 86.17 46.57 91.12 C 47.78 92.53 49.12 93.83 50.48 95.09 C 51.87 93.86 53.21 92.54 54.43 91.13 C 53.67 86.78 52.55 82.49 51.79 78.13 C 52.13 77.63 52.81 76.63 53.15 76.13 C 54.07 77.47 54.97 78.83 55.96 80.12 C 58.37 77.06 60.43 73.75 62.76 70.62 C 67.97 72.17 73.58 72.79 78.32 75.62 C 81.22 77.22 81.75 80.77 82.49 83.68 C 74.53 91.40 63.77 95.93 52.73 96.59 C 40.24 97.13 27.56 92.43 18.55 83.70 C 19.26 80.79 19.88 77.38 22.69 75.72 Z" />
</g>
<g id="#436b85ff">
<path fill="#436b85" opacity="1.00" d=" M 50.50 72.31 L 50.51 72.33 C 51.39 73.60 52.27 74.86 53.15 76.13 C 52.81 76.63 52.13 77.63 51.79 78.13 C 52.55 82.49 53.67 86.78 54.43 91.13 C 53.21 92.54 51.87 93.86 50.48 95.09 C 49.12 93.83 47.78 92.53 46.57 91.12 C 46.98 86.17 49.89 81.19 48.50 76.31 C 49.20 74.99 49.86 73.66 50.50 72.31 Z" />
</g>
</svg>
