<?xml version="1.0" encoding="UTF-8" ?>
<!DOCTYPE svg PUBLIC "-//W3C//DTD SVG 1.1//EN" "http://www.w3.org/Graphics/SVG/1.1/DTD/svg11.dtd">
<svg width="105pt" height="58pt" viewBox="0 0 105 58" version="1.1" xmlns="http://www.w3.org/2000/svg">
<g id="#b2b7c9ff">
<path fill="#b2b7c9" opacity="1.00" d=" M 8.09 0.00 L 97.14 0.00 C 100.96 0.64 104.20 3.51 105.00 7.35 L 105.00 10.07 C 104.47 12.24 103.26 14.16 101.58 15.61 C 88.85 27.53 76.14 39.49 63.42 51.42 C 60.63 53.98 58.07 57.16 54.18 58.00 L 51.03 58.00 C 49.07 57.51 47.14 56.72 45.69 55.26 C 31.57 42.05 17.51 28.79 3.39 15.58 C 1.74 14.18 0.60 12.30 0.00 10.22 L 0.00 7.46 C 0.72 3.49 4.15 0.51 8.09 0.00 Z" />
</g>
</svg>
