<?xml version="1.0" encoding="UTF-8" ?>
<!DOCTYPE svg PUBLIC "-//W3C//DTD SVG 1.1//EN" "http://www.w3.org/Graphics/SVG/1.1/DTD/svg11.dtd">
<svg width="43pt" height="43pt" viewBox="0 0 43 43" version="1.1" xmlns="http://www.w3.org/2000/svg">
<g id="#181818ff">
<path fill="#181818" opacity="1.00" d=" M 18.91 0.00 L 23.89 0.00 C 33.76 1.11 41.88 9.39 43.00 19.23 L 43.00 23.46 C 42.13 33.62 33.48 42.11 23.35 43.00 L 19.85 43.00 C 9.66 42.24 0.92 33.71 0.00 23.52 L 0.00 19.16 C 1.08 9.39 9.19 1.27 18.91 0.00 M 24.29 3.36 C 24.18 4.86 23.99 6.34 23.72 7.81 C 22.65 8.53 21.48 9.09 20.38 9.77 C 19.75 11.33 22.12 10.96 22.95 11.53 C 24.33 10.55 25.94 10.09 27.60 9.92 C 25.46 13.50 23.52 17.30 24.00 21.64 C 22.87 20.31 21.81 18.92 20.77 17.51 C 19.62 17.33 18.47 17.15 17.32 16.98 C 16.49 17.76 15.64 18.51 14.77 19.24 C 14.85 20.81 14.94 22.38 15.01 23.95 C 19.79 22.72 23.25 26.85 26.66 29.44 C 27.79 30.03 29.38 30.31 29.49 31.87 C 27.91 34.13 26.41 36.50 25.85 39.25 C 31.73 37.64 36.40 33.23 38.85 27.72 C 37.29 25.82 35.45 24.10 34.30 21.91 C 33.38 18.65 36.59 16.46 38.55 14.44 C 35.87 8.72 30.56 4.43 24.29 3.36 M 4.31 14.94 C 2.54 20.48 2.96 26.82 6.37 31.66 C 9.56 36.60 15.25 39.36 21.01 39.83 C 20.98 38.92 20.93 37.12 20.90 36.22 C 18.02 34.07 14.80 31.33 15.96 27.28 C 12.99 28.03 11.70 24.77 9.19 23.96 C 6.03 22.82 6.92 18.80 6.50 16.18 C 5.77 15.76 5.04 15.35 4.31 14.94 Z" />
</g>
</svg>
